<?xml version="1.0" encoding="iso-8859-1"?>
<!-- Generator: Adobe Illustrator 19.0.0, SVG Export Plug-In . SVG Version: 6.00 Build 0)  -->
<svg version="1.1" class="svg-color" width="50px" height="60px" id="Capa_1" xmlns="http://www.w3.org/2000/svg" xmlns:xlink="http://www.w3.org/1999/xlink" x="0px" y="0px"
                                         viewBox="0 0 512 512" style="enable-background:new 0 0 512 512;" xml:space="preserve">
                                    <g>
                                    <g>
                                    <path d="M447.401,71.411l-66.764-22.255L341.924,2.699c-1.349-1.619-3.316-2.596-5.422-2.691c-0.114-0.006-0.227,0.002-0.34,0.001
                                          V0H175.839v0.005c-0.246,0-0.492,0.007-0.739,0.032c-2.235,0.221-4.255,1.434-5.501,3.303l-30.583,45.874L65.652,71.787
                                          c-20.09,6.182-33.588,24.457-33.588,45.477v371.204c0,12.976,10.557,23.532,23.532,23.532h400.807
                                          c12.976,0,23.532-10.557,23.532-23.532V116.55C479.937,96.037,466.862,77.897,447.401,71.411z M318.055,15L306.81,26.245
                                          c-2.929,2.929-2.929,7.678,0,10.606c2.93,2.929,7.678,2.929,10.607,0l18.24-18.241l31.56,37.871l-36.625,67.145
                                          c-1.219,2.233-3.262,3.749-5.752,4.268c-2.491,0.518-4.969-0.056-6.977-1.618L267.31,86.957l26.058-26.058
                                          c2.929-2.929,2.929-7.678,0-10.606c-2.929-2.928-7.677-2.929-10.607,0L256,77.054L193.946,15H318.055z M177.005,19.272
                                          l67.685,67.685l-49.406,38.427c-2.074,1.613-4.727,2.177-7.279,1.55c-2.552-0.629-4.639-2.361-5.726-4.754l-29.951-65.892
                                          L177.005,19.272z M456.404,497H239.451V143.774c0-4.142-3.357-7.5-7.5-7.5s-7.5,3.358-7.5,7.5V497H55.597
                                          c-4.705,0-8.532-3.828-8.532-8.532V117.264c0-14.393,9.243-26.907,23-31.14l69.611-21.419l28.946,63.682
                                          c3,6.599,8.756,11.377,15.794,13.111c1.884,0.464,3.788,0.692,5.677,0.692c5.164,0,10.21-1.708,14.399-4.966L256,97.162
                                          l52.654,40.953c4.171,3.244,9.249,4.959,14.434,4.959c1.601,0,3.211-0.164,4.808-0.496c6.771-1.409,12.553-5.699,15.864-11.77
                                          l36.062-66.113l62.835,20.945c13.325,4.441,22.278,16.863,22.278,30.909v371.919h0.001C464.937,493.173,461.109,497,456.404,497z"
                                          />
                                    </g>
                                    </g>
                                    <g>
                                    <g>
                                    <path d="M272.033,144.291c-8.556,0-15.516,6.96-15.516,15.516c0,8.556,6.96,15.516,15.516,15.516
                                          c8.556,0,15.517-6.96,15.517-15.516C287.549,151.251,280.589,144.291,272.033,144.291z"/>
                                    </g>
                                    </g>
                                    <g>
                                    <g>
                                    <path d="M272.033,240.484c-8.556,0-15.516,6.96-15.516,15.516c0,8.556,6.96,15.516,15.516,15.516
                                          c8.556,0,15.517-6.96,15.517-15.516C287.549,247.444,280.589,240.484,272.033,240.484z"/>
                                    </g>
                                    </g>
                                    <g>
                                    <g>
                                    <path d="M272.033,336.677c-8.556,0-15.516,6.96-15.516,15.516c0,8.556,6.96,15.516,15.516,15.516
                                          c8.556,0,15.517-6.96,15.517-15.516C287.549,343.637,280.589,336.677,272.033,336.677z"/>
                                    </g>
                                    </g>
                                    <g>
                                    <g>
                                    <path d="M272.033,432.871c-8.556,0-15.516,6.96-15.516,15.516c0,8.556,6.96,15.516,15.516,15.516
                                          c8.556,0,15.517-6.96,15.517-15.516C287.549,439.831,280.589,432.871,272.033,432.871z"/>
                                    </g>
                                    </g>
                                    <g>
                                    <g>
                                    <path d="M424.339,208.419h-96.193c-4.143,0-7.5,3.358-7.5,7.5v96.193c0,12.976,10.557,23.532,23.532,23.532h64.129
                                          c12.976,0,23.532-10.557,23.532-23.532v-96.193C431.839,211.777,428.482,208.419,424.339,208.419z M416.839,240.484h-8.533
                                          c-4.143,0-7.5,3.358-7.5,7.5c0,4.142,3.357,7.5,7.5,7.5h8.533v56.629c0,4.704-3.827,8.532-8.532,8.532h-64.129
                                          c-4.705,0-8.532-3.828-8.532-8.532v-56.629h40.597c4.143,0,7.5-3.358,7.5-7.5c0-4.142-3.357-7.5-7.5-7.5h-40.597V223.42h81.193
                                          V240.484z"/>
                                    </g>
                                    </g>
                                    </svg>
