<?xml version="1.0" encoding="iso-8859-1"?>
<!-- Generator: Adobe Illustrator 19.0.0, SVG Export Plug-In . SVG Version: 6.00 Build 0)  -->
<svg version="1.1" class="svg-color" width="50px" height="60px" id="Capa_1" xmlns="http://www.w3.org/2000/svg" xmlns:xlink="http://www.w3.org/1999/xlink" x="0px" y="0px"
                                         viewBox="0 0 512.002 512.002" style="enable-background:new 0 0 512.002 512.002;" xml:space="preserve">
                                    <g>
                                    <g>

                                    <rect x="185.442" y="316.764" transform="matrix(0.4164 -0.9092 0.9092 0.4164 -173.1063 378.8884)" width="46.27" height="15.038"/>
                                    </g>
                                    </g>
                                    <g>
                                    <g>

                                    <rect x="250.271" y="386.541" transform="matrix(0.9373 -0.3484 0.3484 0.9373 -120.165 119.9501)" width="46.267" height="15.038"/>
                                    </g>
                                    </g>
                                    <g>
                                    <g>

                                    <rect x="105.919" y="297.657" transform="matrix(0.9373 -0.3484 0.3484 0.9373 -104.6607 59.6245)" width="15.038" height="46.267"/>
                                    </g>
                                    </g>
                                    <g>
                                    <g>
                                    <path d="M65.514,454.031c1.086-1.202,2.68-2.557,4.789-4.064c2.107-1.505,4.395-3.01,6.866-4.518
                                          c2.467-1.504,4.97-2.98,7.498-4.427c2.531-1.445,4.699-2.71,6.506-3.793c2.648-1.565,5.24-3.282,7.769-5.15
                                          c2.531-1.867,4.816-4.033,6.866-6.504c2.047-2.467,3.706-5.269,4.97-8.403c1.264-3.131,1.897-6.685,1.897-10.66
                                          c0-9.635-3.463-17.282-10.389-22.946c-6.929-5.662-16.894-8.492-29.905-8.492c-5.302,0-10.389,0.481-15.266,1.446
                                          c-4.879,0.966-9.368,2.258-13.462,3.884c-4.096,1.626-7.77,3.465-11.022,5.51c-3.252,2.049-5.844,4.157-7.769,6.325l18.429,21.32
                                          c3.493-3.974,7.106-7.196,10.842-9.667c3.732-2.467,8.13-3.704,13.189-3.704c4.456,0,7.888,1.026,10.299,3.071
                                          c2.409,2.049,3.613,4.76,3.613,8.132c0,1.687-0.483,3.161-1.445,4.426c-0.966,1.264-2.561,2.682-4.788,4.246
                                          c-2.23,1.566-5.239,3.374-9.033,5.419c-3.795,2.051-8.524,4.639-14.185,7.77c-5.302,3.012-9.697,6.085-13.189,9.216
                                          c-3.494,3.133-6.265,6.536-8.311,10.207c-2.051,3.676-3.496,7.742-4.337,12.197c-0.845,4.456-1.264,9.516-1.264,15.177h89.98
                                          v-26.019H65.514z"/>
                                    </g>
                                    </g>
                                    <g>
                                    <g>
                                    <path d="M207.822,452.224v-75.346h-19.695l-58.904,75.527v25.837h49.688v24.755h28.91v-24.755h15.901v-26.019H207.822z
                                          M182.347,452.225h-24.573l24.573-31.982V452.225z"/>
                                    </g>
                                    </g>
                                    <g>
                                    <g>
                                    <path d="M500.136,244.136c0-65.211-25.394-126.518-71.505-172.631C382.52,25.394,321.211,0,256.001,0S129.482,25.394,83.37,71.505
                                          c-46.111,46.112-71.505,107.42-71.505,172.631c0,35.294,7.371,69.347,21.906,101.212l13.681-6.241
                                          c-12.599-27.624-19.447-57.011-20.417-87.453H57.81v-15.039H27.041c1.2-37.02,11.22-71.847,28.031-102.443l26.463,15.633
                                          l7.649-12.947l-26.445-15.622c18.132-28.412,42.353-52.574,70.81-70.643l15.56,26.478l12.965-7.62l-15.576-26.503
                                          c30.484-16.659,65.15-26.579,101.984-27.774v30.769h15.039V15.175c37.02,1.2,71.847,11.22,102.443,28.031L350.33,69.669
                                          l12.947,7.649L378.9,50.873c28.412,18.132,52.574,42.353,70.643,70.809l-26.479,15.559l7.62,12.965l26.505-15.574
                                          c16.659,30.484,26.579,65.15,27.774,101.984h-30.769v15.039h30.769c-1.2,37.02-11.22,71.847-28.031,102.443l-26.463-15.633
                                          l-7.649,12.947l26.445,15.622c-18.132,28.412-42.353,52.574-70.81,70.643l-15.56-26.478l-12.965,7.62l15.575,26.504
                                          c-27.94,15.268-59.391,24.88-92.806,27.299l12.483-12.482l-10.634-10.634L243.3,480.754l31.247,31.248l10.634-10.632l-13.6-13.6
                                          c59.348-3.714,114.63-28.583,157.05-71.001C474.742,370.654,500.136,309.347,500.136,244.136z"/>
                                    </g>
                                    </g>
                                    <g>
                                    <g>
                                    <path d="M285.844,236.617c-2.757-10.939-11.385-19.567-22.324-22.324V79.311h-15.039v134.981
                                          c-13.347,3.365-23.257,15.467-23.257,29.844c0,16.971,13.807,30.776,30.776,30.776c14.377,0,26.479-9.909,29.844-23.257h89.476
                                          v-15.039H285.844z M256,259.873c-8.677,0-15.737-7.06-15.737-15.737c0-8.677,7.06-15.737,15.737-15.737
                                          c8.677,0,15.737,7.06,15.737,15.737C271.738,252.813,264.678,259.873,256,259.873z"/>
                                    </g>
                                    </g>
                                    </svg>